<svg xmlns="http://www.w3.org/2000/svg" data-name="Layer 1" viewBox="0 0 697 700.6"><style>
@keyframes a0_t { 0% { transform: translate(323.4px,228px) rotate(0deg) translate(-439.4px,-320.4px); animation-timing-function: cubic-bezier(0,0,1,1); } 100% { transform: translate(323.4px,228px) rotate(720deg) translate(-439.4px,-320.4px); } }
@keyframes a1_w { 0% { width: 0px; } 16.667% { width: 304.7px; } 83.333% { width: 304.7px; } 100% { width: 0px; } }
@keyframes a2_w { 0% { width: 0px; } 16.667% { width: 0px; } 33.333% { width: 304.7px; } 66.667% { width: 304.7px; } 83.333% { width: 0px; } 100% { width: 0px; } }
@keyframes a3_w { 0% { width: 0px; } 33.333% { width: 0px; } 50% { width: 304.7px; } 66.667% { width: 0px; } 100% { width: 0px; } }
</style><title>messaging_app</title><path d="M372.7 129.7c2.9-1.1 5.8-2.2 8.7-3.2l.7 2.2c-4.3 1.5-8.7 3.1-13 4.9l-0.8-2.1c1.4-0.6 2.9-1.2 4.4-1.8Zm-17.2 7.6l1 2.1c-4.1 2-8.2 4.3-12.2 6.6l-1.1-2c4-2.4 8.1-4.6 12.3-6.7Zm39.3-14.8c4.5-1.2 9.1-2.3 13.7-3.2l.4 2.3c-4.5 .9-9 1.9-13.5 3.1Zm-63.5 29l1.3 1.9c-3.8 2.6-7.5 5.4-11.1 8.2l-1.5-1.8c3.7-2.9 7.5-5.7 11.3-8.3Zm91-34.3c4.6-0.6 9.3-1 14-1.3l.1 2.3c-4.6 .3-9.2 .7-13.8 1.2Zm-113 51.7l1.6 1.7c-3.4 3.1-6.7 6.3-9.9 9.7l-1.7-1.6c3.2-3.4 6.6-6.7 10-9.8Zm141-53.2c4.7 .1 9.4 .3 14.1 .7l-0.2 2.3c-4.6-0.4-9.3-0.6-13.9-0.7Zm-160.3 73.4l1.7 1.5c-2.9 3.5-5.8 7.2-8.5 10.9l-1.8-1.3c2.7-3.8 5.6-7.5 8.6-11.1Zm188.3-71c4.6 .7 9.2 1.6 13.8 2.6l-0.5 2.3c-4.5-1.1-9.1-1.9-13.7-2.7Zm-204.8 93.7l2 1.2c-2.4 3.9-4.8 8-6.9 12l-2.1-1c2.2-4.2 4.6-8.2 7-12.2Zm232.2-87.5c4.4 1.3 8.9 2.8 13.3 4.5l-0.9 2.1c-4.3-1.6-8.7-3.1-13.1-4.4Zm-245.3 112.2l2.1 1c-1.9 4.2-3.7 8.5-5.3 12.8l-2.1-0.8c1.6-4.3 3.3-8.7 5.3-13Zm271.5-102.4c4.2 2 8.5 4.1 12.6 6.3l-1.1 2c-4.1-2.2-8.3-4.3-12.4-6.2Zm-281.3 128.7l2.2 .7c-1.2 4.4-2.4 8.9-3.4 13.4l-2.2-0.5c1-4.5 2.1-9.1 3.4-13.6Zm306-115.3c3.9 2.5 7.8 5.1 11.5 7.9l-1.3 1.8c-3.7-2.7-7.6-5.3-11.5-7.8Zm-312 142.7l2.3 .4c-0.7 4.5-1.2 9.2-1.6 13.8l-2.3-0.2c.4-4.7 .9-9.4 1.6-14Zm334.6-126.2c3.5 3 7 6.2 10.4 9.4l-1.6 1.7c-3.3-3.2-6.8-6.3-10.3-9.3Zm-336.8 154.2h2.3c-0.1 4.6 0 9.3 .3 13.9l-2.3 .2c-0.3-4.7-0.4-9.4-0.3-14.1Zm356.9-134.7c3.1 3.5 6.1 7.1 9 10.8l-1.8 1.4c-2.9-3.7-5.9-7.2-8.9-10.7Zm-355.3 162.7l2.3-0.3c.6 4.6 1.3 9.2 2.2 13.7l-2.2 .5c-0.9-4.6-1.7-9.3-2.3-13.9Zm372.5-140.6c2.6 3.9 5.1 7.9 7.5 11.9l-2 1.1c-2.3-3.9-4.8-7.9-7.4-11.7Zm-367 168.1l2.2-0.6c1.2 4.4 2.6 8.9 4.1 13.3l-2.2 .7c-1.5-4.4-2.9-8.9-4.1-13.4Zm381.1-143.9c2 4.2 4 8.5 5.8 12.8l-2.2 .9c-1.7-4.3-3.6-8.5-5.7-12.6Zm-369.9 169.5c1.8 4.2 3.8 8.5 5.9 12.6l-2.1 1c-2.1-4.1-4.1-8.4-5.9-12.7Zm12.6 24.7c2.3 4 4.8 7.9 7.5 11.7l-1.9 1.3c-2.7-3.8-5.2-7.8-7.6-11.8Zm15.7 22.8c2.9 3.6 5.9 7.2 9.1 10.5l-1.7 1.6c-3.2-3.4-6.3-7-9.2-10.6Zm18.8 20.4c3.3 3.2 6.8 6.3 10.4 9.2l-1.5 1.8c-3.6-3-7.1-6.1-10.5-9.3Zm21.4 17.6c3.7 2.7 7.6 5.3 11.5 7.7l-1.2 2c-4-2.5-7.9-5.1-11.7-7.8Zm23.5 14.6c4.1 2.1 8.3 4.1 12.5 6l-0.9 2.1c-4.3-1.9-8.5-3.9-12.6-6.1Zm25.4 11.2c4.3 1.6 8.8 3 13.2 4.3l-0.6 2.2c-4.5-1.3-9-2.8-13.4-4.4Zm26.7 7.6c4.5 1 9.1 1.8 13.6 2.5l-0.3 2.3c-4.6-0.7-9.3-1.5-13.8-2.5Zm27.4 4c4.6 .3 9.3 .5 13.9 .5v2.3c-4.7 0-9.4-0.2-14.1-0.5Zm27.8 .1c4.5-0.3 9.2-0.7 13.8-1.3l.3 2.2c-4.7 .7-9.4 1.1-14 1.4Zm27.4-3.7c4.5-0.9 9.1-2 13.5-3.2l.6 2.2c-4.5 1.3-9.1 2.4-13.6 3.3Z" fill="#e14eca" transform="translate(323.4,228) translate(-439.4,-320.4)" style="animation: 6s linear infinite both a0_t;"/><path d="M523.2 164.5l2.1-0.7c.8 2.2 1.5 4.4 2.1 6.6l-2.2 .6c-0.6-2.1-1.3-4.3-2-6.5Z" fill="#e6e6e6"/><path d="M498.6 290.9l21.2-4.9c.5-0.1 1-0.2 1.5-0.1c.5 .1 1 .2 1.5 .4c.5 .2 .9 .5 1.3 .9c.4 .4 .7 .8 .9 1.3l21.7 45.1c.3 .4 .4 1 .4 1.5c0 .6-0.1 1.1-0.3 1.6c-0.3 .5-0.6 1-1 1.3c-0.4 .4-0.9 .6-1.4 .8l-21.6 6.1c-0.6 .2-1.2 .2-1.8 .2c-0.5-0.1-1.1-0.2-1.7-0.5c-0.5-0.2-1-0.6-1.4-1c-0.4-0.4-0.7-0.9-1-1.5l-13.9-32.2l-0.4 .2l-2.6-6.1l.4-0.2l-3.8-9c-0.2-0.4-0.3-0.8-0.3-1.2c0-0.4 .1-0.8 .3-1.2c.2-0.4 .5-0.7 .8-1c.4-0.2 .7-0.4 1.2-0.5Z" fill="#3f3d56"/><path d="M517.2 287.7l2.5-0.6c.3-0.1 .7-0.1 1.1-0.1c.3 .1 .7 .2 1 .3c.3 .2 .6 .4 .9 .6c.2 .3 .5 .6 .6 .9l21.2 44.8c.1 .3 .2 .6 .2 .8c0 .3 0 .6-0.2 .9c-0.1 .2-0.2 .5-0.5 .7c-0.2 .1-0.4 .3-0.7 .4l-21.4 6.4c-0.3 .1-0.6 .1-0.9 .1c-0.3 0-0.7-0.1-0.9-0.2c-0.3-0.1-0.6-0.3-0.8-0.5c-0.2-0.3-0.4-0.5-0.5-0.8l-20.1-46.7c-0.1-0.3-0.2-0.7-0.2-1c0-0.3 .1-0.7 .3-0.9c.1-0.3 .3-0.6 .6-0.8c.3-0.2 .6-0.3 .9-0.4l2.3-0.6c.1 0 .3 0 .4 0c.1 0 .2 .1 .3 .1c.1 .1 .2 .1 .3 .2c.1 .1 .1 .2 .2 .3c0 .1 .1 .1 .2 .2c.1 .1 .1 .1 .2 .2c.1 0 .2 .1 .3 .1c.1 0 .2 0 .3-0.1l11.2-2.5c.2-0.1 .4-0.2 .5-0.3c.2-0.1 .3-0.2 .5-0.4c.1-0.2 .1-0.4 .2-0.5c0-0.2 0-0.4 0-0.6Z" fill="#1d8cf8"/><path d="M650.9 227.5c-0.3-1.2-0.8-2.4-1.5-3.5c-0.7-1.1-1.5-2.1-2.6-2.8c-1-0.8-2.1-1.5-3.3-1.9c-1.3-0.4-2.6-0.6-3.9-0.6c-7.6 .1-16.9 2-14.8 11c3.5 15 28.2 79.9 28.2 79.9l-60.4 7.5c0 0-47.1-6.9-32.1 9.2c14.9 16.1 34.4 6.9 34.4 6.9c0 0 77.6 2.1 77.6-10.9c0-3.5-0.6-8.1-3.1-18.3Z" fill="#ffb8b8"/><ellipse cx="605.3" cy="178" fill="#ffb8b8" rx="29.9" ry="29.9"/><path d="M625.4 194.7c0 0-2.3 22.9 5.8 32.1h-43.7c0 0 10.3-9.2 2.3-27.5c-8.1-18.4 35.6-4.6 35.6-4.6Z" fill="#ffb8b8"/><path d="M654.1 282c-0.8 3.6-1.6 6.8-2.4 9.5c-3 10.6-5.8 15.5-7.5 17.6c-0.1 .2-0.2 .3-0.3 .5c-0.2 .1-0.3 .3-0.4 .4c-0.1 .2-0.3 .3-0.4 .4c-0.2 .1-0.3 .3-0.4 .4l-70.2-19.6c0 0 2.3-24.1 8.1-29.9c5.7-5.7 3.4-36.8 3.4-36.8l18.4-5.7c0 0 17.1-0.6 28.8-0.5c3.7 0 6.8 .1 8.8 .3c.1 0 .2 0 .4 0c.1 0 .2 0 .3 .1c.2 0 .3 0 .4 0c.1 0 .3 .1 .4 .1c4.6 1.1 18.4 37.9 12.6 63.2Z" fill="#ffb8b8"/><path d="M622.5 292.9c0 0-15.5-70.7-21.2-73c-5.5-2.1-16.1 3.5-16.1 3.5c0 0 19.2-10.9 28.8 69.5Z" fill="#2f2e41"/><path d="M651.7 291.5c-3 10.6-5.8 15.5-7.5 17.6c-4-22.9-12.3-72-13-90.8c3.7 0 6.8 .1 8.8 .3c.7 14.2 6.7 38.8 11.7 72.9Z" fill="#2f2e41"/><path d="M574.8 277.4c0 0 9.8 14.4 17.8 13.3c8.1-1.2 53.2 3.7 55.4 11.6l-12.8 44.7v16.1c0 0 16.3 12.6 18 47.4c.1 3.5 .1 7-0.1 10.5c-0.1 3.5-0.5 7-0.9 10.5c-0.5 3.5-1.1 6.9-1.9 10.4c-0.8 3.4-1.8 6.8-2.8 10.1l-5.4 16.8c0 0-5.8 29.9 1.1 42.6c6.9 12.6 3.5 40.2 3.5 40.2c0 0 61.5 85.7 27 93.7c-34.5 8.1-69.6 22.4-70.7 .6c-1.2-21.9-8.1-170.2-8.1-170.2c0 0 6.9 166.7-19.5 170.2c-26.4 3.4-77 27.6-79.3-1.2c-2.3-28.7 58.6-265.5 58.6-265.5c0 0-1.1-35.7 18.4-49.5l4.6-18.4c0 0-13.2-27-2.9-33.9Z" fill="#2f2e41"/><path fill="#2f2e41" d="M579.4 249.8l-6.3 32.8v3.8l9.9-30.8l-3.6-5.8Z"/><path d="M628 628c0 0 2.8 30.4-6.1 33.2c-8.8 2.9-48.3-0.3-38.5 18c9.7 18.3 86.6 9.1 83.3-0.8c-3.3-9.8-18.5-56-18.5-56Z" fill="#2f2e41"/><path d="M529.1 630.3c0 0 2.8 30.4-6 33.2c-8.9 2.9-48.4-0.3-38.6 18c9.8 18.3 86.7 9.1 83.3-0.8c-3.3-9.8-18.4-56-18.4-56Z" fill="#2f2e41"/><path d="M599.2 231c-0.3-1.3-0.8-2.5-1.5-3.6c-0.7-1-1.6-2-2.6-2.8c-1-0.8-2.2-1.4-3.4-1.8c-1.2-0.4-2.5-0.7-3.8-0.6c-7.6 0-16.9 1.9-14.8 11c3.4 14.9 19.5 85 19.5 85l-51.7 2.3c0 0-47.1-6.9-32.2 9.2c15 16.1 34.5 6.9 34.5 6.9c0 0 56.9 8.7 66.1-0.5c.1-0.1 .2-0.2 .3-0.3c1.8-1.8 3.4-3.9 4.7-6.1c1.3-2.2 2.4-4.6 3.1-7c.7-2.5 1.1-5.1 1.1-7.6c.1-2.6-0.2-5.2-0.8-7.7Z" fill="#ffb8b8"/><path d="M616.2 130.5c-19.1 0-34.6 21.4-34.6 47.9v33.6h8.3l4.8-12.5l-1.2 12.5h53.2l4.4-11.3l-1.1 11.3h6v-26.4c0-30.5-17.8-55.1-39.8-55.1Z" fill="#2f2e41"/><path d="M619.8 137.9c-1-1.4-2.2-2.7-3.5-3.8c-1.3-1.1-2.8-2.1-4.3-2.8c-1.6-0.8-3.2-1.4-4.9-1.9c-1.7-0.4-3.4-0.6-5.1-0.6h-0.9c-16.3 0-29.6 14.8-29.6 33h5.5l.9-6.7l1.3 6.7h32.5l2.7-5.7l-0.7 5.7h6.4c3 14.8-1.3 29.6-12.8 44.4h10.8l5.5-11.3l-1.4 11.3h20.8l4.1-26.2c0-19.6-11.4-36.2-27.3-42.1Z" fill="#2f2e41"/><path fill="#1f2251" d="M408.1 220.2v-168.1h-408.1v225.3h361.4h46.7h69l-69-57.2Z"/><rect width="0" height="10.3" fill="#e14eca" transform="translate(49.4,116.5)" style="animation: 6s linear infinite both a1_w;"/><rect width="0" height="10.3" fill="#e14eca" transform="translate(49.4,142.9)" style="animation: 6s linear infinite both a2_w;"/><rect width="0" height="10.3" fill="#e14eca" transform="translate(49.4,169.4)" style="animation: 6s linear infinite both a3_w;"/><ellipse cx="371.3" cy="261.3" fill="#1d8cf8" rx="9.2" ry="9.2"/><ellipse cx="397.8" cy="261.3" fill="#1d8cf8" rx="9.2" ry="9.2"/><ellipse cx="424.2" cy="261.3" fill="#1d8cf8" rx="9.2" ry="9.2"/></svg>